<svg width="3082" height="1314" xmlns="http://www.w3.org/2000/svg" xmlns:xlink="http://www.w3.org/1999/xlink" overflow="hidden"><defs><clipPath id="clip0"><rect x="202" y="691" width="3082" height="1314"/></clipPath></defs><g clip-path="url(#clip0)" transform="translate(-202 -691)"><path d="M204.5 1095.67C204.5 1078.45 218.454 1064.5 235.667 1064.5L607.332 1064.5C624.546 1064.5 638.5 1078.45 638.5 1095.67L638.5 1220.33C638.5 1237.55 624.546 1251.5 607.332 1251.5L235.667 1251.5C218.454 1251.5 204.5 1237.55 204.5 1220.33Z" stroke="#78846A" stroke-width="4.58333" stroke-miterlimit="8" fill="#A5B592" fill-rule="evenodd"/><text fill="#FFFFFF" font-family="Calibri,Calibri_MSFontService,sans-serif" font-weight="400" font-size="83" transform="matrix(1 0 0 1 257.537 1185)">Commit 2</text><path d="M820.5 1469.67C820.5 1452.45 834.454 1438.5 851.667 1438.5L1223.33 1438.5C1240.55 1438.5 1254.5 1452.45 1254.5 1469.67L1254.5 1594.33C1254.5 1611.55 1240.55 1625.5 1223.33 1625.5L851.667 1625.5C834.454 1625.5 820.5 1611.55 820.5 1594.33Z" stroke="#78846A" stroke-width="4.58333" stroke-miterlimit="8" fill="#A5B592" fill-rule="evenodd"/><text fill="#FFFFFF" font-family="Calibri,Calibri_MSFontService,sans-serif" font-weight="400" font-size="83" transform="matrix(1 0 0 1 873.536 1559)">Commit 3</text><path d="M827.537 1451.9 652.814 1272.45 657.74 1267.66 832.463 1447.1ZM642.055 1289.33 626.5 1240.5 674.893 1257.35Z" fill="#7F7F7F"/><path d="M1436.5 1469.67C1436.5 1452.45 1450.45 1438.5 1467.67 1438.5L1839.33 1438.5C1856.55 1438.5 1870.5 1452.45 1870.5 1469.67L1870.5 1594.33C1870.5 1611.55 1856.55 1625.5 1839.33 1625.5L1467.67 1625.5C1450.45 1625.5 1436.5 1611.55 1436.5 1594.33Z" stroke="#78846A" stroke-width="4.58333" stroke-miterlimit="8" fill="#A5B592" fill-rule="evenodd"/><text fill="#FFFFFF" font-family="Calibri,Calibri_MSFontService,sans-serif" font-weight="400" font-size="83" transform="matrix(1 0 0 1 1489.54 1559)">Commit 4</text><path d="M6.80929e-06-3.4375 140.938-3.43722 140.937 3.43778-6.80929e-06 3.4375ZM136.354-22.9164 182.188 0.000360892 136.354 22.9169Z" fill="#7F7F7F" transform="matrix(-1 0 0 1 1436.69 1532.5)"/><rect x="2805.5" y="1812.5" width="433" height="187" stroke="#B37732" stroke-width="4.58333" stroke-miterlimit="8" fill="#F3A447"/><text fill="#FFFFFF" font-family="Calibri,Calibri_MSFontService,sans-serif" font-weight="400" font-size="83" transform="matrix(1 0 0 1 2846.72 1933)">f<tspan font-size="83" x="23.146" y="0">eat</tspan><tspan font-size="83" x="130.671" y="0">-</tspan><tspan font-size="83" x="155.879" y="0">cache</tspan></text><path d="M3.4375-6.63405e-06 3.43778 145.75-3.43722 145.75-3.4375 6.63405e-06ZM22.9169 141.167 0.000360892 187-22.9164 141.167Z" fill="#7F7F7F" transform="matrix(1 0 0 -1 3021.5 1812.5)"/><path d="M820.5 1097.67C820.5 1080.45 834.454 1066.5 851.667 1066.5L1223.33 1066.5C1240.55 1066.5 1254.5 1080.45 1254.5 1097.67L1254.5 1222.33C1254.5 1239.55 1240.55 1253.5 1223.33 1253.5L851.667 1253.5C834.454 1253.5 820.5 1239.55 820.5 1222.33Z" stroke="#78846A" stroke-width="4.58333" stroke-miterlimit="8" fill="#A5B592" fill-rule="evenodd"/><text fill="#FFFFFF" font-family="Calibri,Calibri_MSFontService,sans-serif" font-weight="400" font-size="83" transform="matrix(1 0 0 1 873.536 1187)">Commit 5</text><path d="M6.80929e-06-3.4375 140.938-3.43722 140.937 3.43778-6.80929e-06 3.4375ZM136.354-22.9164 182.188 0.000360892 136.354 22.9169Z" fill="#7F7F7F" transform="matrix(-1 0 0 1 820.687 1159.5)"/><rect x="820.5" y="693.5" width="434" height="187" stroke="#B37732" stroke-width="4.58333" stroke-miterlimit="8" fill="#F3A447"/><text fill="#FFFFFF" font-family="Calibri,Calibri_MSFontService,sans-serif" font-weight="400" font-size="83" transform="matrix(1 0 0 1 920.274 814)">master</text><path d="M1040.94 880.5 1040.94 1026.25 1034.06 1026.25 1034.06 880.5ZM1060.42 1021.67 1037.5 1067.5 1014.58 1021.67Z" fill="#7F7F7F"/><path d="M2050.5 1469.67C2050.5 1452.45 2064.45 1438.5 2081.67 1438.5L2453.33 1438.5C2470.55 1438.5 2484.5 1452.45 2484.5 1469.67L2484.5 1594.33C2484.5 1611.55 2470.55 1625.5 2453.33 1625.5L2081.67 1625.5C2064.45 1625.5 2050.5 1611.55 2050.5 1594.33Z" stroke="#78846A" stroke-width="4.58333" stroke-miterlimit="8" fill="#A5B592" fill-rule="evenodd"/><text fill="#FFFFFF" font-family="Calibri,Calibri_MSFontService,sans-serif" font-weight="400" font-size="83" transform="matrix(1 0 0 1 2104.02 1559)">Commit 6</text><path d="M2055.12 1459.64 1286.5 1256.37 1288.26 1249.72 2056.88 1452.99ZM1285.95 1276.37 1247.5 1242.5 1297.67 1232.06Z" fill="#7F7F7F"/><path d="M6.80929e-06-3.4375 140.938-3.43722 140.937 3.43778-6.80929e-06 3.4375ZM136.354-22.9164 182.188 0.000360892 136.354 22.9169Z" fill="#7F7F7F" transform="matrix(-1 0 0 1 2050.69 1535.5)"/><path d="M4.46649e-06-3.4375 27.5-3.43746 27.5 3.43754-4.46649e-06 3.4375ZM48.125-3.43744 75.625-3.4374 75.625 3.4376 48.125 3.43756ZM96.25-3.43737 123.75-3.43734 123.75 3.43766 96.25 3.43763ZM144.375-3.43731 171.875-3.43728 171.875 3.43772 144.375 3.43769ZM192.5-3.43725 220-3.43721 220 3.43779 192.5 3.43775ZM231.917-22.9164 277.75 0.000360892 231.917 22.917Z" fill="#7F7F7F" transform="matrix(-1 0 0 1 2762.25 1532.5)"/><path d="M2762.5 1469.67C2762.5 1452.45 2776.45 1438.5 2793.67 1438.5L3250.33 1438.5C3267.55 1438.5 3281.5 1452.45 3281.5 1469.67L3281.5 1594.33C3281.5 1611.55 3267.55 1625.5 3250.33 1625.5L2793.67 1625.5C2776.45 1625.5 2762.5 1611.55 2762.5 1594.33Z" stroke="#78846A" stroke-width="4.58333" stroke-miterlimit="8" fill="#A5B592" fill-rule="evenodd"/><text fill="#FFFFFF" font-family="Calibri,Calibri_MSFontService,sans-serif" font-weight="400" font-size="83" transform="matrix(1 0 0 1 2816.32 1559)">Commit 233</text><rect x="2805.5" y="1064.5" width="433" height="187" stroke="#B37732" stroke-width="4.58333" stroke-miterlimit="8" fill="#F3A447"/><text fill="#FFFFFF" font-family="Calibri,Calibri_MSFontService,sans-serif" font-weight="400" font-size="83" transform="matrix(1 0 0 1 2887.4 1185)">develo<tspan font-size="83" x="224.514" y="0">p</tspan></text><path d="M3024.94 1251.5 3024.94 1397.25 3018.06 1397.25 3018.06 1251.5ZM3044.42 1392.67 3021.5 1438.5 2998.58 1392.67Z" fill="#7F7F7F"/></g></svg>