<svg width="3523" height="1314" xmlns="http://www.w3.org/2000/svg" xmlns:xlink="http://www.w3.org/1999/xlink" overflow="hidden"><defs><clipPath id="clip0"><rect x="66" y="677" width="3523" height="1314"/></clipPath></defs><g clip-path="url(#clip0)" transform="translate(-66 -677)"><path d="M68.4999 1082.67C68.4999 1065.45 82.454 1051.5 99.6673 1051.5L471.333 1051.5C488.546 1051.5 502.5 1065.45 502.5 1082.67L502.5 1207.33C502.5 1224.55 488.546 1238.5 471.333 1238.5L99.6673 1238.5C82.454 1238.5 68.4999 1224.55 68.4999 1207.33Z" stroke="#78846A" stroke-width="4.58333" stroke-miterlimit="8" fill="#A5B592" fill-rule="evenodd"/><text fill="#FFFFFF" font-family="Calibri,Calibri_MSFontService,sans-serif" font-weight="400" font-size="83" transform="matrix(1 0 0 1 122.1 1171)">Commit 0</text><path d="M684.5 1082.67C684.5 1065.45 698.454 1051.5 715.667 1051.5L1087.33 1051.5C1104.55 1051.5 1118.5 1065.45 1118.5 1082.67L1118.5 1207.33C1118.5 1224.55 1104.55 1238.5 1087.33 1238.5L715.667 1238.5C698.454 1238.5 684.5 1224.55 684.5 1207.33Z" stroke="#78846A" stroke-width="4.58333" stroke-miterlimit="8" fill="#A5B592" fill-rule="evenodd"/><text fill="#FFFFFF" font-family="Calibri,Calibri_MSFontService,sans-serif" font-weight="400" font-size="83" transform="matrix(1 0 0 1 738.1 1171)">Commit 1</text><path d="M1300.5 1082.67C1300.5 1065.45 1314.45 1051.5 1331.67 1051.5L1703.33 1051.5C1720.55 1051.5 1734.5 1065.45 1734.5 1082.67L1734.5 1207.33C1734.5 1224.55 1720.55 1238.5 1703.33 1238.5L1331.67 1238.5C1314.45 1238.5 1300.5 1224.55 1300.5 1207.33Z" stroke="#78846A" stroke-width="4.58333" stroke-miterlimit="8" fill="#A5B592" fill-rule="evenodd"/><text fill="#FFFFFF" font-family="Calibri,Calibri_MSFontService,sans-serif" font-weight="400" font-size="83" transform="matrix(1 0 0 1 1354.1 1171)">Commit 2</text><path d="M6.80929e-06-3.4375 140.938-3.43722 140.937 3.43778-6.80929e-06 3.4375ZM136.354-22.9164 182.188 0.000360892 136.354 22.9169Z" fill="#7F7F7F" transform="matrix(-1 0 0 1 684.688 1144.5)"/><path d="M6.80929e-06-3.4375 140.938-3.43722 140.937 3.43778-6.80929e-06 3.4375ZM136.354-22.9164 182.188 0.000360892 136.354 22.9169Z" fill="#7F7F7F" transform="matrix(-1 0 0 1 1300.69 1144.5)"/><path d="M1916.5 1456.67C1916.5 1439.45 1930.45 1425.5 1947.67 1425.5L2319.33 1425.5C2336.55 1425.5 2350.5 1439.45 2350.5 1456.67L2350.5 1581.33C2350.5 1598.55 2336.55 1612.5 2319.33 1612.5L1947.67 1612.5C1930.45 1612.5 1916.5 1598.55 1916.5 1581.33Z" stroke="#78846A" stroke-width="4.58333" stroke-miterlimit="8" fill="#A5B592" fill-rule="evenodd"/><text fill="#FFFFFF" font-family="Calibri,Calibri_MSFontService,sans-serif" font-weight="400" font-size="83" transform="matrix(1 0 0 1 1970.1 1545)">Commit 3</text><path d="M1924.54 1438.9 1749.81 1259.45 1754.74 1254.66 1929.46 1434.1ZM1739.06 1276.33 1723.5 1227.5 1771.89 1244.35Z" fill="#7F7F7F"/><path d="M2532.5 1456.67C2532.5 1439.45 2546.45 1425.5 2563.67 1425.5L2935.33 1425.5C2952.55 1425.5 2966.5 1439.45 2966.5 1456.67L2966.5 1581.33C2966.5 1598.55 2952.55 1612.5 2935.33 1612.5L2563.67 1612.5C2546.45 1612.5 2532.5 1598.55 2532.5 1581.33Z" stroke="#78846A" stroke-width="4.58333" stroke-miterlimit="8" fill="#A5B592" fill-rule="evenodd"/><text fill="#FFFFFF" font-family="Calibri,Calibri_MSFontService,sans-serif" font-weight="400" font-size="83" transform="matrix(1 0 0 1 2586.1 1545)">Commit 4</text><rect x="2531.5" y="679.5" width="434" height="187" stroke="#B37732" stroke-width="4.58333" stroke-miterlimit="8" fill="#F3A447"/><text fill="#FFFFFF" font-family="Calibri,Calibri_MSFontService,sans-serif" font-weight="400" font-size="83" transform="matrix(1 0 0 1 2613.84 800)">develop</text><path d="M2.42894-2.43241 166.015 160.92 161.157 165.785-2.42894 2.43241ZM176.536 143.898 192.775 192.5 144.15 176.33Z" fill="#7F7F7F" transform="matrix(-1 0 0 1 2531.28 866.5)"/><path d="M6.80929e-06-3.4375 140.938-3.43722 140.937 3.43778-6.80929e-06 3.4375ZM136.354-22.9164 182.188 0.000360892 136.354 22.9169Z" fill="#7F7F7F" transform="matrix(-1 0 0 1 2532.69 1518.5)"/><rect x="3147.5" y="1799.5" width="434" height="187" stroke="#B37732" stroke-width="4.58333" stroke-miterlimit="8" fill="#F3A447"/><text fill="#FFFFFF" font-family="Calibri,Calibri_MSFontService,sans-serif" font-weight="400" font-size="83" transform="matrix(1 0 0 1 3189.16 1919)">feat<tspan font-size="83" x="130.671" y="0">-</tspan><tspan font-size="83" x="155.879" y="0">cache</tspan></text><path d="M3.4375-6.63405e-06 3.43778 145.75-3.43722 145.75-3.4375 6.63405e-06ZM22.9169 141.167 0.000360892 187-22.9164 141.167Z" fill="#7F7F7F" transform="matrix(1 0 0 -1 3364.5 1799.5)"/><path d="M1916.5 1083.67C1916.5 1066.45 1930.45 1052.5 1947.67 1052.5L2319.33 1052.5C2336.55 1052.5 2350.5 1066.45 2350.5 1083.67L2350.5 1208.33C2350.5 1225.55 2336.55 1239.5 2319.33 1239.5L1947.67 1239.5C1930.45 1239.5 1916.5 1225.55 1916.5 1208.33Z" stroke="#78846A" stroke-width="4.58333" stroke-miterlimit="8" fill="#A5B592" fill-rule="evenodd"/><text fill="#FFFFFF" font-family="Calibri,Calibri_MSFontService,sans-serif" font-weight="400" font-size="83" transform="matrix(1 0 0 1 1970.1 1173)">Commit 5</text><path d="M6.80929e-06-3.4375 140.938-3.43722 140.937 3.43778-6.80929e-06 3.4375ZM136.354-22.9164 182.188 0.000360892 136.354 22.9169Z" fill="#7F7F7F" transform="matrix(-1 0 0 1 1916.69 1145.5)"/><rect x="1916.5" y="679.5" width="434" height="187" stroke="#B37732" stroke-width="4.58333" stroke-miterlimit="8" fill="#F3A447"/><text fill="#FFFFFF" font-family="Calibri,Calibri_MSFontService,sans-serif" font-weight="400" font-size="83" transform="matrix(1 0 0 1 2016.84 800)">master</text><path d="M2136.94 866.5 2136.94 1012.25 2130.06 1012.25 2130.06 866.5ZM2156.42 1007.67 2133.5 1053.5 2110.58 1007.67Z" fill="#7F7F7F"/><path d="M3147.5 1456.67C3147.5 1439.45 3161.45 1425.5 3178.67 1425.5L3550.33 1425.5C3567.55 1425.5 3581.5 1439.45 3581.5 1456.67L3581.5 1581.33C3581.5 1598.55 3567.55 1612.5 3550.33 1612.5L3178.67 1612.5C3161.45 1612.5 3147.5 1598.55 3147.5 1581.33Z" stroke="#78846A" stroke-width="4.58333" stroke-miterlimit="8" fill="#A5B592" fill-rule="evenodd"/><text fill="#FFFFFF" font-family="Calibri,Calibri_MSFontService,sans-serif" font-weight="400" font-size="83" transform="matrix(1 0 0 1 3200.59 1545)">Commit 6</text><path d="M3152.12 1445.64 2383.5 1242.37 2385.26 1235.72 3153.88 1438.99ZM2382.95 1262.37 2344.5 1228.5 2394.67 1218.06Z" fill="#7F7F7F"/><path d="M6.80929e-06-3.4375 140.938-3.43722 140.937 3.43778-6.80929e-06 3.4375ZM136.354-22.9164 182.188 0.000360892 136.354 22.9169Z" fill="#7F7F7F" transform="matrix(-1 0 0 1 3147.69 1521.5)"/><rect x="431" y="720" width="1166" height="211" fill="#F2F2F2"/><text font-family="Cascadia Code,Cascadia Code_MSFontService,sans-serif" font-weight="400" font-size="73" transform="matrix(1 0 0 1 464.337 809)">$ git checkout feat<tspan font-size="73" x="816.406" y="0">-</tspan>cache<tspan font-size="73" x="0" y="88">$</tspan><tspan font-size="73" x="85.9375" y="88">git</tspan><tspan font-size="73" x="257.812" y="88">merge</tspan><tspan font-size="73" x="515.625" y="88">develo</tspan><tspan font-size="73" x="773.438" y="88">p</tspan></text></g></svg>